<svg width="26" height="26" viewBox="0 0 26 26" fill="none" xmlns="http://www.w3.org/2000/svg">
<g filter="url(#filter0_d_1_542)">
<mask id="mask0_1_542" style="mask-type:alpha" maskUnits="userSpaceOnUse" x="0" y="0" width="24" height="24">
<circle cx="12" cy="12" r="12" fill="#D9D9D9"/>
</mask>
<g mask="url(#mask0_1_542)">
<path fill-rule="evenodd" clip-rule="evenodd" d="M-4 0V24H28V0H-4Z" fill="#EA1A1A"/>
<mask id="mask1_1_542" style="mask-type:luminance" maskUnits="userSpaceOnUse" x="-4" y="0" width="32" height="24">
<path fill-rule="evenodd" clip-rule="evenodd" d="M-4 0V24H28V0H-4Z" fill="white"/>
</mask>
<g mask="url(#mask1_1_542)">
<path d="M14.2386 11.827C14.2975 11.8447 21.6499 14.0749 16.6859 19.7039C16.6709 19.6976 13.928 18.5386 14.2386 15.6541C14.5502 12.7621 15.1279 12.1384 14.2386 11.827ZM12.2845 13.5613C12.2845 13.5613 13.6167 21.2036 6.33331 19.2723C6.33067 19.2305 6.15488 16.2807 8.86163 15.2733C11.5883 14.2585 12.4039 14.4965 12.2845 13.5613ZM3.32452 7.86798C3.32452 7.86798 6.20618 7.06137 7.75812 9.52228C9.30989 11.9829 9.24343 12.8308 10.1341 12.5223C10.1125 12.5309 2.92781 15.3809 3.32452 7.86798ZM13.2737 11.119C13.2737 11.119 16.9233 4.27305 21.4788 10.2752C21.4788 10.2752 19.7995 12.7513 17.0257 11.8748C14.2516 10.9981 13.7549 10.308 13.2737 11.119ZM12.9886 3.40314C12.9886 3.40314 14.9978 5.61975 13.4905 8.10822C11.9829 10.5965 11.195 10.916 11.8694 11.575C11.8694 11.575 6.07988 6.41152 12.9886 3.40314Z" fill="white"/>
<path d="M5.95026 10.3422L6.37227 10.074C7.29861 11.5319 8.50087 12.2492 10.0012 12.2492V12.7492C8.32267 12.7492 6.96499 11.9392 5.95026 10.3422Z" fill="#EA1A1A"/>
<path fill-rule="evenodd" clip-rule="evenodd" d="M17.75 10.75C18.1642 10.75 18.5 10.4142 18.5 10C18.5 9.58579 18.1642 9.25 17.75 9.25C17.3358 9.25 17 9.58579 17 10C17 10.4142 17.3358 10.75 17.75 10.75Z" fill="#EA1A1A"/>
<path fill-rule="evenodd" clip-rule="evenodd" d="M15.9586 15.7281C16.3728 15.7281 16.7086 15.3923 16.7086 14.9781C16.7086 14.5639 16.3728 14.2281 15.9586 14.2281C15.5443 14.2281 15.2086 14.5639 15.2086 14.9781C15.2086 15.3923 15.5443 15.7281 15.9586 15.7281Z" fill="#EA1A1A"/>
<path fill-rule="evenodd" clip-rule="evenodd" d="M9.95856 17.7281C10.3728 17.7281 10.7086 17.3923 10.7086 16.9781C10.7086 16.5639 10.3728 16.2281 9.95856 16.2281C9.54434 16.2281 9.20856 16.5639 9.20856 16.9781C9.20856 17.3923 9.54434 17.7281 9.95856 17.7281Z" fill="#EA1A1A"/>
<path fill-rule="evenodd" clip-rule="evenodd" d="M5.95856 10.7281C6.37277 10.7281 6.70856 10.3923 6.70856 9.97809C6.70856 9.56387 6.37277 9.22809 5.95856 9.22809C5.54434 9.22809 5.20856 9.56387 5.20856 9.97809C5.20856 10.3923 5.54434 10.7281 5.95856 10.7281Z" fill="#EA1A1A"/>
<path fill-rule="evenodd" clip-rule="evenodd" d="M11.9586 7.72809C12.3728 7.72809 12.7086 7.3923 12.7086 6.97809C12.7086 6.56387 12.3728 6.22809 11.9586 6.22809C11.5443 6.22809 11.2086 6.56387 11.2086 6.97809C11.2086 7.3923 11.5443 7.72809 11.9586 7.72809Z" fill="#EA1A1A"/>
<path d="M11.6346 7.05276L12.0741 7.29103C11.2415 8.82702 11.1828 10.2438 11.8879 11.5698L11.4464 11.8045C10.6591 10.3239 10.7252 8.73042 11.6346 7.05276Z" fill="#EA1A1A"/>
<path d="M18.015 9.68583L17.94 10.1802C15.9842 9.88368 14.5203 10.2963 13.5178 11.4096L13.1463 11.075C14.2709 9.82604 15.9039 9.36579 18.015 9.68583Z" fill="#EA1A1A"/>
<path d="M16.3512 15.3649L15.861 15.4635C15.4707 13.5243 14.5823 12.2897 13.1933 11.7285L13.3806 11.2649C14.9389 11.8945 15.9299 13.2716 16.3512 15.3649Z" fill="#EA1A1A"/>
<path d="M9.90652 17.15L9.64616 16.7232C11.335 15.6931 12.1912 14.436 12.2435 12.9388L12.7432 12.9563C12.6845 14.636 11.7294 16.0382 9.90652 17.15Z" fill="#EA1A1A"/>
</g>
</g>
</g>
<defs>
<filter id="filter0_d_1_542" x="0" y="0" width="26" height="26" filterUnits="userSpaceOnUse" color-interpolation-filters="sRGB">
<feFlood flood-opacity="0" result="BackgroundImageFix"/>
<feColorMatrix in="SourceAlpha" type="matrix" values="0 0 0 0 0 0 0 0 0 0 0 0 0 0 0 0 0 0 127 0" result="hardAlpha"/>
<feOffset dx="1" dy="1"/>
<feGaussianBlur stdDeviation="0.5"/>
<feComposite in2="hardAlpha" operator="out"/>
<feColorMatrix type="matrix" values="0 0 0 0 0 0 0 0 0 0 0 0 0 0 0 0 0 0 0.4 0"/>
<feBlend mode="normal" in2="BackgroundImageFix" result="effect1_dropShadow_1_542"/>
<feBlend mode="normal" in="SourceGraphic" in2="effect1_dropShadow_1_542" result="shape"/>
</filter>
</defs>
</svg>
