<svg width="26" height="26" viewBox="0 0 26 26" fill="none" xmlns="http://www.w3.org/2000/svg">
<g filter="url(#filter0_d_1_540)">
<mask id="mask0_1_540" style="mask-type:alpha" maskUnits="userSpaceOnUse" x="0" y="0" width="24" height="24">
<circle cx="12" cy="12" r="12" fill="#D9D9D9"/>
</mask>
<g mask="url(#mask0_1_540)">
<path fill-rule="evenodd" clip-rule="evenodd" d="M-2 0V24H30V0H-2Z" fill="#F7FCFF"/>
<mask id="mask1_1_540" style="mask-type:luminance" maskUnits="userSpaceOnUse" x="-2" y="0" width="32" height="24">
<path fill-rule="evenodd" clip-rule="evenodd" d="M-2 0V24H30V0H-2Z" fill="white"/>
</mask>
<g mask="url(#mask1_1_540)">
<path fill-rule="evenodd" clip-rule="evenodd" d="M-2 0V12H30V0H-2Z" fill="#E31D1C"/>
<path d="M1.85095 6.37433C1.85095 2.15877 5.49519 1.84795 6.86853 2.19562C6.85728 2.20001 4.04236 3.30141 4.04236 6.37433C4.04254 9.44688 6.85702 10.5845 6.86853 10.5892C5.44016 11.3842 1.85112 10.5896 1.85095 6.37433ZM8.78943 8.37238H9.70251L9.02869 9.12531L9.23181 10.0804L8.40271 9.59113L7.59216 10.0804L7.77771 9.12531L7.10193 8.41144L8.01599 8.37238L8.40271 7.48077L8.78943 8.37238ZM11.7357 8.31769H12.6488L11.975 9.07062L12.1781 10.0257L11.349 9.53644L10.5385 10.0257L10.724 9.07062L10.0482 8.35675L10.9623 8.31769L11.349 7.42609L11.7357 8.31769ZM7.75623 6.00421H8.66931L7.99548 6.75714L8.19861 7.71222L7.36951 7.22296L6.55896 7.71222L6.74451 6.75714L6.06873 6.0423L6.98279 6.00421L7.36951 5.11163L7.75623 6.00421ZM13.1146 5.96027H14.0277L13.3539 6.7132L13.557 7.66827L12.7279 7.17902L11.9174 7.66827L12.1029 6.7132L11.4271 5.99835L12.3412 5.96027L12.7279 5.06866L13.1146 5.96027ZM10.4847 4.06183H11.3969L10.723 4.81476L10.9261 5.76984L10.098 5.28058L9.28748 5.76984L9.47205 4.81476L8.79724 4.09991L9.7113 4.06183L10.098 3.17023L10.4847 4.06183Z" fill="#F1F9FF"/>
</g>
</g>
</g>
<defs>
<filter id="filter0_d_1_540" x="0" y="0" width="26" height="26" filterUnits="userSpaceOnUse" color-interpolation-filters="sRGB">
<feFlood flood-opacity="0" result="BackgroundImageFix"/>
<feColorMatrix in="SourceAlpha" type="matrix" values="0 0 0 0 0 0 0 0 0 0 0 0 0 0 0 0 0 0 127 0" result="hardAlpha"/>
<feOffset dx="1" dy="1"/>
<feGaussianBlur stdDeviation="0.5"/>
<feComposite in2="hardAlpha" operator="out"/>
<feColorMatrix type="matrix" values="0 0 0 0 0 0 0 0 0 0 0 0 0 0 0 0 0 0 0.4 0"/>
<feBlend mode="normal" in2="BackgroundImageFix" result="effect1_dropShadow_1_540"/>
<feBlend mode="normal" in="SourceGraphic" in2="effect1_dropShadow_1_540" result="shape"/>
</filter>
</defs>
</svg>
