<svg width="26" height="26" viewBox="0 0 26 26" fill="none" xmlns="http://www.w3.org/2000/svg">
<g filter="url(#filter0_d_1_546)">
<mask id="mask0_1_546" style="mask-type:alpha" maskUnits="userSpaceOnUse" x="0" y="0" width="24" height="24">
<circle cx="12" cy="12" r="12" fill="#D9D9D9"/>
</mask>
<g mask="url(#mask0_1_546)">
<path fill-rule="evenodd" clip-rule="evenodd" d="M-4 0V24H28V0H-4Z" fill="#FFB400"/>
<mask id="mask1_1_546" style="mask-type:luminance" maskUnits="userSpaceOnUse" x="-4" y="0" width="32" height="24">
<path fill-rule="evenodd" clip-rule="evenodd" d="M-4 0V24H28V0H-4Z" fill="white"/>
</mask>
<g mask="url(#mask1_1_546)">
<path fill-rule="evenodd" clip-rule="evenodd" d="M-4 0V6H28V0H-4Z" fill="#C51918"/>
<path fill-rule="evenodd" clip-rule="evenodd" d="M-4 18V24H28V18H-4Z" fill="#C51918"/>
<rect x="1.00781" y="10.2715" width="1.12" height="5.824" fill="#F1F9FF"/>
<path d="M2.5752 9.82324H2.23926V10.2715H0.895508V9.82324H0.55957V9.26367H2.5752V9.82324Z" fill="#C88A02"/>
<path fill-rule="evenodd" clip-rule="evenodd" d="M2.23957 16.4314H2.57557V16.9914H0.55957V16.4314H0.89557V15.9834H2.23957V16.4314Z" fill="#C88A02"/>
<path fill-rule="evenodd" clip-rule="evenodd" d="M1.56818 9.37555C1.81191 9.37555 1.83669 9.28378 1.98048 9.1467C2.09214 9.04027 2.35218 8.90826 2.35218 8.75955C2.35218 8.41935 2.00117 8.14355 1.56818 8.14355C1.13519 8.14355 0.78418 8.41935 0.78418 8.75955C0.78418 8.92522 0.963259 9.036 1.09866 9.1467C1.24132 9.26334 1.34604 9.37555 1.56818 9.37555Z" fill="#AD1619"/>
<path fill-rule="evenodd" clip-rule="evenodd" d="M0.55957 16.9912H2.57557V17.8872C2.57557 17.8872 2.32357 17.7752 2.07157 17.7752C1.81957 17.7752 1.56757 17.8872 1.56757 17.8872C1.56757 17.8872 1.31557 17.7752 1.06357 17.7752C0.81157 17.7752 0.55957 17.8872 0.55957 17.8872V16.9912Z" fill="#005BBF"/>
<mask id="mask2_1_546" style="mask-type:luminance" maskUnits="userSpaceOnUse" x="0" y="16" width="3" height="2">
<path fill-rule="evenodd" clip-rule="evenodd" d="M0.55957 16.9912H2.57557V17.8872C2.57557 17.8872 2.32357 17.7752 2.07157 17.7752C1.81957 17.7752 1.56757 17.8872 1.56757 17.8872C1.56757 17.8872 1.31557 17.7752 1.06357 17.7752C0.81157 17.7752 0.55957 17.8872 0.55957 17.8872V16.9912Z" fill="white"/>
</mask>
<g mask="url(#mask2_1_546)">
</g>
<rect x="11.9834" y="10.2715" width="1.12" height="5.824" fill="#F1F9FF"/>
<path d="M13.5518 9.82324H13.2158V10.2715H11.8721V9.82324H11.5361V9.26367H13.5518V9.82324Z" fill="#C88A02"/>
<path fill-rule="evenodd" clip-rule="evenodd" d="M13.2161 16.4314H13.5521V16.9914H11.5361V16.4314H11.8721V15.9834H13.2161V16.4314Z" fill="#C88A02"/>
<path fill-rule="evenodd" clip-rule="evenodd" d="M12.5438 9.37555C12.7875 9.37555 12.8123 9.28378 12.9561 9.1467C13.0677 9.04027 13.3278 8.90826 13.3278 8.75955C13.3278 8.41935 12.9768 8.14355 12.5438 8.14355C12.1108 8.14355 11.7598 8.41935 11.7598 8.75955C11.7598 8.92522 11.9388 9.036 12.0742 9.1467C12.2169 9.26334 12.3216 9.37555 12.5438 9.37555Z" fill="#AD1619"/>
<path fill-rule="evenodd" clip-rule="evenodd" d="M11.5361 16.9912H13.5521V17.8872C13.5521 17.8872 13.3001 17.7752 13.0481 17.7752C12.7961 17.7752 12.5441 17.8872 12.5441 17.8872C12.5441 17.8872 12.2921 17.7752 12.0401 17.7752C11.7881 17.7752 11.5361 17.8872 11.5361 17.8872V16.9912Z" fill="#005BBF"/>
<mask id="mask3_1_546" style="mask-type:luminance" maskUnits="userSpaceOnUse" x="11" y="16" width="3" height="2">
<path fill-rule="evenodd" clip-rule="evenodd" d="M11.5361 16.9912H13.5521V17.8872C13.5521 17.8872 13.3001 17.7752 13.0481 17.7752C12.7961 17.7752 12.5441 17.8872 12.5441 17.8872C12.5441 17.8872 12.2921 17.7752 12.0401 17.7752C11.7881 17.7752 11.5361 17.8872 11.5361 17.8872V16.9912Z" fill="white"/>
</mask>
<g mask="url(#mask3_1_546)">
</g>
<path d="M0.387695 11.8721C1.13774 11.3555 3.14584 11.3088 4.02734 11.7637L3.61621 12.5596C3.18355 12.3365 2.20099 12.2947 1.5127 12.4092C1.61731 12.4274 1.73476 12.4471 1.86621 12.4678C1.94834 12.4807 2.23661 12.5247 2.25977 12.5283C2.5346 12.5711 2.72235 12.6251 2.86133 12.7197C3.14512 12.9129 3.18689 13.2617 2.98438 13.5186C2.89894 13.6268 2.78708 13.7077 2.61816 13.8057C2.56389 13.8371 2.50519 13.8693 2.42676 13.9111C2.41075 13.9197 2.27455 13.9921 2.23438 14.0137C2.07291 14.1004 1.96675 14.1632 1.8877 14.2207C1.76387 14.3108 1.63634 14.384 1.49219 14.4531C1.41446 14.4904 1.19337 14.5869 1.19336 14.5869C1.18895 14.5889 1.18476 14.591 1.18066 14.5928C1.25829 14.6979 1.30269 14.8266 1.30273 14.9756C1.30273 15.2121 1.18923 15.4349 0.987305 15.6797L0.299805 15.1123L0.234375 15.0928L0.198242 14.8057C0.130698 14.2765 0.35638 13.9835 0.822266 13.7715C0.834145 13.7661 1.04535 13.6743 1.10547 13.6455C1.20381 13.5984 1.28466 13.5511 1.36035 13.4961C1.43505 13.4418 1.5156 13.3901 1.6123 13.334C1.03546 13.2413 0.723544 13.1733 0.484375 13.0703C-0.087958 12.8237 -0.162126 12.251 0.387695 11.8721ZM9.98145 11.7637C10.863 11.3088 12.8711 11.3555 13.6211 11.8721C14.1709 12.251 14.0967 12.8237 13.5244 13.0703C13.2852 13.1733 12.9733 13.2413 12.3965 13.334C12.4932 13.3901 12.5737 13.4418 12.6484 13.4961C12.7241 13.5511 12.805 13.5984 12.9033 13.6455C12.9634 13.6743 13.1746 13.7661 13.1865 13.7715C13.6524 13.9835 13.8781 14.2765 13.8105 14.8057L13.7744 15.0928L13.709 15.1123L13.0215 15.6797C12.8196 15.4349 12.7061 15.2121 12.7061 14.9756C12.7061 14.8266 12.7505 14.6979 12.8281 14.5928C12.824 14.591 12.8198 14.5889 12.8154 14.5869C12.8154 14.5869 12.5943 14.4904 12.5166 14.4531C12.3724 14.384 12.2449 14.3108 12.1211 14.2207C12.042 14.1632 11.9359 14.1004 11.7744 14.0137C11.7342 13.9921 11.598 13.9197 11.582 13.9111C11.5036 13.8693 11.4449 13.8371 11.3906 13.8057C11.2217 13.7077 11.1099 13.6268 11.0244 13.5186C10.8219 13.2617 10.8637 12.9129 11.1475 12.7197C11.2864 12.6251 11.4742 12.5711 11.749 12.5283C11.7722 12.5247 12.0605 12.4807 12.1426 12.4678C12.274 12.4471 12.3915 12.4274 12.4961 12.4092C11.8078 12.2947 10.8252 12.3365 10.3926 12.5596L9.98145 11.7637Z" fill="#AD1619"/>
<path d="M1.92317 12.3994L2.25375 12.4678V12.9605C1.90166 13.2415 1.00781 13.715 1.00781 13.715V12.3994H1.92317Z" fill="#F1F9FF"/>
<path d="M12.3141 12.3994L11.9836 12.4678V12.9605C12.3356 13.2415 13.2295 13.715 13.2295 13.715V12.3994H12.3141Z" fill="#F1F9FF"/>
<path d="M5.26172 6.4209C5.26172 6.4209 6.19999 6.01548 7.13086 6.10645C7.13086 6.10645 7.13005 6.10745 7.12988 6.10938C7.74926 6.0494 8.3612 6.15433 8.96582 6.42188C9.59629 6.42188 10.2003 6.62855 10.7764 7.04199V7.20605L9.64648 8.33984C9.42065 8.96594 9.01768 8.99922 8.7041 9.10352C8.59962 9.13796 7.12598 9.17871 7.12598 9.17871C7.12598 9.17871 7.12517 9.17738 7.12402 9.1748C4.92074 9.4279 4.5882 8.36031 4.58203 8.33984L3.45215 7.20508V7.04102C3.45821 7.03667 4.31945 6.42101 5.26172 6.4209ZM7.10742 6.38867C7.11273 6.34397 7.11631 6.29819 7.11914 6.25098C7.11595 6.29014 7.11146 6.33636 7.10742 6.38867Z" fill="#AD1619"/>
<path d="M10.7998 7.39844L9.77246 8.36426C9.62258 8.64028 9.54688 8.82276 9.54688 8.89844C9.5468 9.01387 9.24634 9.08196 8.66016 9.15234C8.20095 9.20747 7.6591 9.24252 7.21582 9.24805V9.25098C7.19715 9.25098 7.17827 9.24915 7.15918 9.24902C7.14042 9.24914 7.12187 9.25098 7.10352 9.25098V9.24805C6.66024 9.24252 6.11839 9.20747 5.65918 9.15234C5.073 9.08196 4.77254 9.01387 4.77246 8.89844C4.77246 8.88289 4.7671 8.8633 4.76074 8.83887C4.70373 8.76328 4.66279 8.64373 4.63574 8.53516C4.60973 8.48307 4.5803 8.42582 4.54688 8.36426L3.51953 7.39844L3.59668 7.31641L4.62207 8.28125C4.81765 8.22869 5.87398 7.96151 7.05371 7.94824V7.94629C7.0687 7.94629 7.08368 7.94718 7.09863 7.94727C7.11359 7.94718 7.12856 7.94629 7.14355 7.94629V7.94824C8.44382 7.96287 9.59417 8.28628 9.60742 8.29004C9.60742 8.29004 9.59429 8.39883 9.56348 8.52539C9.59576 8.459 9.63416 8.38454 9.67871 8.30273L9.68945 8.28906L10.7227 7.31641L10.7998 7.39844ZM7.09863 8.66016C6.80707 8.67871 5.19064 8.78693 4.94531 8.90137C4.94169 8.90306 4.93715 8.90291 4.93359 8.9043C4.96973 8.91754 5.01872 8.93327 5.08008 8.94727C5.22409 8.98011 5.42904 9.01283 5.67188 9.04199C6.14626 9.09895 6.71064 9.13472 7.15918 9.1377C7.60788 9.13477 8.17273 9.09899 8.64746 9.04199C8.8903 9.01283 9.09525 8.98011 9.23926 8.94727C9.31255 8.93054 9.36936 8.91395 9.40625 8.89844C9.41935 8.89292 9.42902 8.88709 9.43555 8.88281C9.43679 8.86514 9.44197 8.84558 9.44727 8.82324C9.39682 8.89794 9.33292 8.93925 9.25195 8.90137C9.00663 8.78693 7.39019 8.67871 7.09863 8.66016Z" fill="#C88A02"/>
<path fill-rule="evenodd" clip-rule="evenodd" d="M7.11237 5.3468C7.29793 5.3468 7.44837 5.19637 7.44837 5.0108C7.44837 4.82524 7.29793 4.6748 7.11237 4.6748C6.9268 4.6748 6.77637 4.82524 6.77637 5.0108C6.77637 5.19637 6.9268 5.3468 7.11237 5.3468Z" fill="#005BBF"/>
<path d="M7.2207 4.22363H7.37305V4.45703H7.2207V4.92383H7.37305V5.15723H6.83203V4.92383H6.9873V4.45703H6.83203V4.22363H6.9873V4.07617H7.2207V4.22363Z" fill="#C88A02"/>
<rect x="6.94434" y="5.34375" width="0.448" height="1.456" fill="#C88A02"/>
<path d="M3.708 7.29613L3.09277 7.273C3.38305 5.5954 4.81262 4.77344 7.09704 4.77344C9.38442 4.77344 10.8089 5.59896 11.0774 7.28279L10.2453 7.37007C10.1147 6.55066 8.74221 5.80912 7.10906 5.80912C5.47296 5.80912 3.85086 6.47049 3.708 7.29613Z" fill="#C88A02"/>
<path opacity="0.3" fill-rule="evenodd" clip-rule="evenodd" d="M3.47168 9.26367H10.7517V15.8045C10.7517 15.8045 10.2109 17.9997 7.11168 17.9997C4.01245 17.9997 3.47168 15.7466 3.47168 15.7466V9.26367Z" fill="#E1E5E8"/>
<mask id="mask4_1_546" style="mask-type:luminance" maskUnits="userSpaceOnUse" x="3" y="9" width="8" height="9">
<path fill-rule="evenodd" clip-rule="evenodd" d="M3.47168 9.26367H10.7517V15.8045C10.7517 15.8045 10.2109 17.9997 7.11168 17.9997C4.01245 17.9997 3.47168 15.7466 3.47168 15.7466V9.26367Z" fill="white"/>
</mask>
<g mask="url(#mask4_1_546)">
<rect x="3.47168" y="13.2959" width="3.696" height="4.368" fill="#FFC034"/>
<rect x="3.47168" y="9.15137" width="3.696" height="4.256" fill="#AD1619"/>
<rect x="7.05566" y="13.1836" width="3.696" height="4.256" fill="#AD1619"/>
<rect x="7.05566" y="9.26367" width="3.92" height="4.144" fill="#F1F9FF"/>
<path fill-rule="evenodd" clip-rule="evenodd" d="M9.48217 17.4421C9.48217 17.4421 7.10997 17.6286 7.10997 16.0986C7.10997 16.0986 7.08735 17.4421 4.61035 17.4421V18.6499H9.48217V17.4421Z" fill="#F1F9FF"/>
<path fill-rule="evenodd" clip-rule="evenodd" d="M7.11148 14.1914C7.5754 14.1914 7.95148 13.7903 7.95148 13.2954C7.95148 12.8006 7.5754 12.3994 7.11148 12.3994C6.64757 12.3994 6.27148 12.8006 6.27148 13.2954C6.27148 13.7903 6.64757 14.1914 7.11148 14.1914Z" fill="#005BBF" stroke="#AD1619" stroke-width="0.583333"/>
</g>
<path fill-rule="evenodd" clip-rule="evenodd" d="M5 12C5.55228 12 6 11.5523 6 11C6 10.4477 5.55228 10 5 10C4.44772 10 4 10.4477 4 11C4 11.5523 4.44772 12 5 12Z" fill="#C88A02"/>
<path fill-rule="evenodd" clip-rule="evenodd" d="M9 12C9.55228 12 10 11.5523 10 11C10 10.4477 9.55228 10 9 10C8.44772 10 8 10.4477 8 11C8 11.5523 8.44772 12 9 12Z" fill="#C37C9C"/>
<path fill-rule="evenodd" clip-rule="evenodd" d="M9 16C9.55228 16 10 15.5523 10 15C10 14.4477 9.55228 14 9 14C8.44772 14 8 14.4477 8 15C8 15.5523 8.44772 16 9 16Z" fill="#FFC034"/>
<path d="M5 16C5.55228 16 6 15.5523 6 15C6 14.4477 5.55228 14 5 14C4.44772 14 4 14.4477 4 15C4 15.5523 4.44772 16 5 16Z" fill="#AD1619"/>
</g>
</g>
</g>
<defs>
<filter id="filter0_d_1_546" x="0" y="0" width="26" height="26" filterUnits="userSpaceOnUse" color-interpolation-filters="sRGB">
<feFlood flood-opacity="0" result="BackgroundImageFix"/>
<feColorMatrix in="SourceAlpha" type="matrix" values="0 0 0 0 0 0 0 0 0 0 0 0 0 0 0 0 0 0 127 0" result="hardAlpha"/>
<feOffset dx="1" dy="1"/>
<feGaussianBlur stdDeviation="0.5"/>
<feComposite in2="hardAlpha" operator="out"/>
<feColorMatrix type="matrix" values="0 0 0 0 0 0 0 0 0 0 0 0 0 0 0 0 0 0 0.4 0"/>
<feBlend mode="normal" in2="BackgroundImageFix" result="effect1_dropShadow_1_546"/>
<feBlend mode="normal" in="SourceGraphic" in2="effect1_dropShadow_1_546" result="shape"/>
</filter>
</defs>
</svg>
