<svg width="26" height="26" viewBox="0 0 26 26" fill="none" xmlns="http://www.w3.org/2000/svg">
<g filter="url(#filter0_d_1_534)">
<mask id="mask0_1_534" style="mask-type:alpha" maskUnits="userSpaceOnUse" x="0" y="0" width="24" height="24">
<circle cx="12" cy="12" r="12" fill="#D9D9D9"/>
</mask>
<g mask="url(#mask0_1_534)">
<path fill-rule="evenodd" clip-rule="evenodd" d="M-1 0H31V24H-1V0Z" fill="#E31D1C"/>
<path fill-rule="evenodd" clip-rule="evenodd" d="M14.0157 4.54832L13.0056 5.15815L13.236 3.96812L12.3947 3.0775L13.5338 3.02935L14.0157 1.91815L14.4976 3.02935H15.6347L14.7955 3.96812L15.0481 5.15815L14.0157 4.54832Z" fill="#FECA00"/>
<path fill-rule="evenodd" clip-rule="evenodd" d="M6.01751 9.60722L3.13667 11.1582L3.79377 8.13166L1.39474 5.86662L4.64317 5.74415L6.01751 2.91815L7.39185 5.74415H10.6347L8.24124 8.13166L8.96183 11.1582L6.01751 9.60722Z" fill="#FECA00"/>
<path fill-rule="evenodd" clip-rule="evenodd" d="M16.0157 8.54832L15.0056 9.15815L15.236 7.96812L14.3947 7.0775L15.5338 7.02935L16.0157 5.91815L16.4976 7.02935H17.6347L16.7955 7.96812L17.0481 9.15815L16.0157 8.54832Z" fill="#FECA00"/>
<path fill-rule="evenodd" clip-rule="evenodd" d="M15.0157 12.5483L14.0056 13.1582L14.236 11.9681L13.3947 11.0775L14.5338 11.0293L15.0157 9.91815L15.4976 11.0293H16.6347L15.7955 11.9681L16.0481 13.1582L15.0157 12.5483Z" fill="#FECA00"/>
<path fill-rule="evenodd" clip-rule="evenodd" d="M12.0157 15.5483L11.0056 16.1582L11.236 14.9681L10.3947 14.0775L11.5338 14.0293L12.0157 12.9182L12.4976 14.0293H13.6347L12.7955 14.9681L13.0481 16.1582L12.0157 15.5483Z" fill="#FECA00"/>
</g>
</g>
<defs>
<filter id="filter0_d_1_534" x="0" y="0" width="26" height="26" filterUnits="userSpaceOnUse" color-interpolation-filters="sRGB">
<feFlood flood-opacity="0" result="BackgroundImageFix"/>
<feColorMatrix in="SourceAlpha" type="matrix" values="0 0 0 0 0 0 0 0 0 0 0 0 0 0 0 0 0 0 127 0" result="hardAlpha"/>
<feOffset dx="1" dy="1"/>
<feGaussianBlur stdDeviation="0.5"/>
<feComposite in2="hardAlpha" operator="out"/>
<feColorMatrix type="matrix" values="0 0 0 0 0 0 0 0 0 0 0 0 0 0 0 0 0 0 0.4 0"/>
<feBlend mode="normal" in2="BackgroundImageFix" result="effect1_dropShadow_1_534"/>
<feBlend mode="normal" in="SourceGraphic" in2="effect1_dropShadow_1_534" result="shape"/>
</filter>
</defs>
</svg>
