<svg width="26" height="26" viewBox="0 0 26 26" fill="none" xmlns="http://www.w3.org/2000/svg">
<g filter="url(#filter0_d_1_528)">
<mask id="mask0_1_528" style="mask-type:alpha" maskUnits="userSpaceOnUse" x="0" y="0" width="24" height="24">
<ellipse cx="12" cy="12" rx="12" ry="12" fill="#D9D9D9"/>
</mask>
<g mask="url(#mask0_1_528)">
<path fill-rule="evenodd" clip-rule="evenodd" d="M-3.5001 0.500031V24.5H28.4999V0.500031H-3.5001Z" fill="#2E42A5"/>
<path d="M-5.00427 13.9998L-1.04332 15.737L15.0899 2.88875L17.1792 0.307217L12.9435 -0.273407L6.36318 5.26328L1.06668 8.99372L-5.00427 13.9998Z" fill="#F7FCFF"/>
<path d="M-4.46201 15.217L-2.44409 16.2251L16.4289 0.0673637H13.5955L-4.46201 15.217Z" fill="#F50100"/>
<path d="M17.0043 13.9998L13.0433 15.737L-3.08988 2.88875L-5.17919 0.307217L-0.943523 -0.273407L5.63682 5.26328L10.9333 8.99372L17.0043 13.9998Z" fill="#F7FCFF"/>
<path d="M16.2774 14.3186L15.0907 14.8391L14.1538 15.25L6.81487 8.96352L4.43227 8.19059L-5.38023 0.316057H-2.54683L7.26015 8.00368L9.8651 8.9305L16.2774 14.3186Z" fill="#F50100"/>
<path fill-rule="evenodd" clip-rule="evenodd" d="M6.98451 1.00001H4.98451V7.00001H-3V9.00001H4.98451V15H6.98451V9.00001H15V7.00001H6.98451V1.00001Z" fill="#F50100"/>
<path fill-rule="evenodd" clip-rule="evenodd" d="M3.48451 1.00001H8.48451V5.50001H15V10.5H8.48451L8.5 15H3.5L3.48451 10.5H-3V5.50001H3.48451V1.00001ZM4.98451 7.00001H-3V9.00001H4.98451V15H6.98451V9.00001H15V7.00001H6.98451V1.00001H4.98451V7.00001Z" fill="#F7FCFF"/>
<path d="M6 21.5L4.69835 22.7029L4.82725 20.9352L3.07522 20.6676L4.53761 19.6662L3.65451 18.1295L5.34917 18.6486L6 17L6.65083 18.6486L8.34549 18.1295L7.46239 19.6662L8.92478 20.6676L7.17275 20.9352L7.30165 22.7029L6 21.5Z" fill="#F7FCFF"/>
<path d="M19 14L18.1322 14.8019L18.2182 13.6235L17.0501 13.445L18.0251 12.7775L17.4363 11.753L18.5661 12.099L19 11L19.4339 12.099L20.5637 11.753L19.9749 12.7775L20.9499 13.445L19.7818 13.6235L19.8678 14.8019L19 14Z" fill="#F7FCFF"/>
<path d="M21 6.00001L20.1322 6.80194L20.2182 5.6235L19.0501 5.44505L20.0251 4.77748L19.4363 3.75303L20.5661 4.09904L21 3.00001L21.4339 4.09904L22.5637 3.75303L21.9749 4.77748L22.9499 5.44505L21.7818 5.6235L21.8678 6.80194L21 6.00001Z" fill="#F7FCFF"/>
<path d="M26 10L25.1322 10.8019L25.2182 9.6235L24.0501 9.44505L25.0251 8.77748L24.4363 7.75303L25.5661 8.09904L26 7.00001L26.4339 8.09904L27.5637 7.75303L26.9749 8.77748L27.9499 9.44505L26.7818 9.6235L26.8678 10.8019L26 10Z" fill="#F7FCFF"/>
<path d="M22 23L21.1322 23.8019L21.2182 22.6235L20.0501 22.445L21.0251 21.7775L20.4363 20.753L21.5661 21.099L22 20L22.4339 21.099L23.5637 20.753L22.9749 21.7775L23.9499 22.445L22.7818 22.6235L22.8678 23.8019L22 23Z" fill="#F7FCFF"/>
<path d="M25.5 15.25L24.6183 15.7135L24.7867 14.7318L24.0734 14.0365L25.0592 13.8932L25.5 13L25.9408 13.8932L26.9266 14.0365L26.2133 14.7318L26.3817 15.7135L25.5 15.25Z" fill="#F7FCFF"/>
</g>
</g>
<defs>
<filter id="filter0_d_1_528" x="0" y="0" width="26" height="26" filterUnits="userSpaceOnUse" color-interpolation-filters="sRGB">
<feFlood flood-opacity="0" result="BackgroundImageFix"/>
<feColorMatrix in="SourceAlpha" type="matrix" values="0 0 0 0 0 0 0 0 0 0 0 0 0 0 0 0 0 0 127 0" result="hardAlpha"/>
<feOffset dx="1" dy="1"/>
<feGaussianBlur stdDeviation="0.5"/>
<feComposite in2="hardAlpha" operator="out"/>
<feColorMatrix type="matrix" values="0 0 0 0 0 0 0 0 0 0 0 0 0 0 0 0 0 0 0.4 0"/>
<feBlend mode="normal" in2="BackgroundImageFix" result="effect1_dropShadow_1_528"/>
<feBlend mode="normal" in="SourceGraphic" in2="effect1_dropShadow_1_528" result="shape"/>
</filter>
</defs>
</svg>
