<svg width="26" height="26" viewBox="0 0 26 26" fill="none" xmlns="http://www.w3.org/2000/svg">
<g filter="url(#filter0_d_1_543)">
<mask id="mask0_1_543" style="mask-type:alpha" maskUnits="userSpaceOnUse" x="0" y="0" width="24" height="24">
<circle cx="12" cy="12" r="12" fill="#D9D9D9"/>
</mask>
<g mask="url(#mask0_1_543)">
<path fill-rule="evenodd" clip-rule="evenodd" d="M18 0H28V24H18V0Z" fill="#D9071E"/>
<path fill-rule="evenodd" clip-rule="evenodd" d="M-4 0H8V24H-4V0Z" fill="#006923"/>
<path fill-rule="evenodd" clip-rule="evenodd" d="M6 0H18V24H6V0Z" fill="white"/>
<path d="M10.0162 7.94659C9.92439 8.09946 9.85071 8.23258 9.79645 8.3421C9.97618 8.3952 10.1005 8.64908 10.2369 8.77472C10.6011 9.11039 10.5558 9.48491 10.0552 9.89093C9.95875 9.96961 10.182 10.1767 10.0953 10.4339C10.334 10.4472 10.5044 10.4835 10.6617 10.5765C11.1037 10.8379 11.0627 11.3147 10.7261 11.6829C10.4876 11.9439 10.1688 12.1556 9.86871 12.264C9.3695 12.4443 8.83551 12.3747 8.83551 11.7357C8.8354 11.7106 8.81936 11.661 9.05524 11.6556C8.67505 11.6496 8.51879 10.6053 8.51324 10.4866C8.51322 9.69213 8.17731 9.69171 8.17731 9.69171V9.26495H8.75739C9.08637 9.26496 8.995 9.66125 9.09918 9.89093C9.12438 9.84894 9.16562 11.2043 9.30133 11.0901C9.35318 11.0498 9.7367 11.5334 9.79645 11.3216C9.84113 11.1618 9.5812 10.5324 9.5816 10.265C9.58255 9.64385 9.77723 9.29066 9.79645 9.26495C9.71302 9.23536 9.58892 8.90627 9.53278 8.9046C9.01904 8.9046 8.94907 8.79695 9.05524 8.3421C9.11204 8.09886 8.91802 7.83289 9.15875 7.43195L10.0162 7.94659ZM9.97223 11.0247L9.98297 11.015C9.98454 11.0122 9.98621 11.0099 9.98785 11.0081C9.98278 11.0137 9.97746 11.0192 9.97223 11.0247Z" fill="#A8AC71"/>
<path fill-rule="evenodd" clip-rule="evenodd" d="M10.3841 7.91339C10.3841 7.91339 9.69734 8.44605 9.82578 9.01393C9.95421 9.58181 11.3077 9.01393 11.1441 8.46366C10.9805 7.91339 10.3841 7.91339 10.3841 7.91339Z" fill="#FCCA3D"/>
<path fill-rule="evenodd" clip-rule="evenodd" d="M15.2665 12.4029C15.2665 12.4029 16.1915 9.66155 14.7211 8.24251C13.2507 6.82347 11.5516 6.91843 11.5516 6.91843C11.5516 6.91843 11.0623 7.28197 11.5516 7.55923C12.0409 7.83649 11.8359 8.10233 11.8359 8.10233C11.8359 8.10233 11.0165 7.27029 10.4725 7.7564C9.92854 8.24251 10.9803 8.16853 10.869 8.53455C10.7576 8.90057 10.2859 10.5256 10.9752 11.3461C11.6645 12.1665 10.3235 11.9885 10.5963 11.9885C10.869 11.9885 11.8359 12.1794 11.8359 11.9885C11.8359 11.7975 12.1721 12.7309 12.4598 12.7309C12.7475 12.7309 12.9695 12.4029 12.9695 12.4029C12.9695 12.4029 13.3728 12.7309 13.6185 12.7309C13.8643 12.7309 14.7211 12.5163 14.7211 12.5163L13.1016 11.1517C13.1016 11.1517 13.1993 10.5499 12.9695 10.4196C12.7398 10.2893 14.8113 11.574 14.9735 11.9885C15.1357 12.4029 15.2665 12.4029 15.2665 12.4029Z" fill="#8F4620"/>
<path d="M7.06647 11.7266C7.06647 11.7266 7.21662 11.248 7.37737 11.2148C7.51664 11.186 7.8095 11.4441 7.8095 11.4441C8.32974 14.334 9.58768 15.4627 11.6749 15.4627C13.7867 15.4627 15.0667 14.605 15.8136 11.9398C15.8136 11.9398 16.2106 11.5343 16.3507 11.5794C16.5033 11.6284 16.6944 12.1649 16.6944 12.1649C15.8375 15.2225 14.2186 16.5839 11.6749 16.5839C9.10673 16.5839 7.66382 15.0448 7.06647 11.7266Z" fill="#9FAB2F"/>
<path fill-rule="evenodd" clip-rule="evenodd" d="M9.33421 13.6564C9.33421 13.6564 12.3386 14.2938 13.5244 14.2938C14.7102 14.2938 12.4839 15.2616 11.6153 15.2616C11.2353 15.2616 10.7773 15.0312 10.2412 14.5705C10.1452 14.488 10.2382 14.3032 9.94555 14.3007C9.53746 14.2971 9.03047 14.2014 9.07898 14.1431C9.1251 14.0876 9.71886 14.0708 9.66164 14.0102C9.56723 13.9101 9.33421 13.6564 9.33421 13.6564Z" fill="#2FC2DC"/>
<rect x="10.6667" y="14.1" width="2" height="1.07143" rx="0.166667" fill="#F9AA51"/>
<path d="M8.17554 12.1359C8.17554 12.1359 8.17554 11.7608 8.42952 11.5616C8.72066 11.3331 8.99416 11.5616 8.99416 11.5616C10.0596 13.0802 11.6529 13.5798 13.8813 13.0584C13.8813 13.0584 14.5476 13.2761 14.5811 13.4191C14.6236 13.6007 14.1092 14.0321 14.1092 14.0321C11.5041 14.6416 9.49053 14.0102 8.17554 12.1359Z" fill="#259485"/>
<path fill-rule="evenodd" clip-rule="evenodd" d="M12.5913 12.3503C12.5913 12.3503 11.3777 12.9891 11.7822 12.9891C12.1868 12.9891 13.7701 13.3086 13.462 12.9891C13.1539 12.6697 12.5913 12.3503 12.5913 12.3503Z" fill="#FCCA3D"/>
<path fill-rule="evenodd" clip-rule="evenodd" d="M11.1564 11.5882C11.1564 11.5882 10.9258 10.9222 10.4459 10.9222C9.96602 10.9222 10.1015 11.4686 9.87071 11.4686C9.63993 11.4686 10.0857 11.853 10.2844 11.853C10.4831 11.853 11.1564 11.5882 11.1564 11.5882Z" fill="#FCCA3D"/>
</g>
</g>
<defs>
<filter id="filter0_d_1_543" x="0" y="0" width="26" height="26" filterUnits="userSpaceOnUse" color-interpolation-filters="sRGB">
<feFlood flood-opacity="0" result="BackgroundImageFix"/>
<feColorMatrix in="SourceAlpha" type="matrix" values="0 0 0 0 0 0 0 0 0 0 0 0 0 0 0 0 0 0 127 0" result="hardAlpha"/>
<feOffset dx="1" dy="1"/>
<feGaussianBlur stdDeviation="0.5"/>
<feComposite in2="hardAlpha" operator="out"/>
<feColorMatrix type="matrix" values="0 0 0 0 0 0 0 0 0 0 0 0 0 0 0 0 0 0 0.4 0"/>
<feBlend mode="normal" in2="BackgroundImageFix" result="effect1_dropShadow_1_543"/>
<feBlend mode="normal" in="SourceGraphic" in2="effect1_dropShadow_1_543" result="shape"/>
</filter>
</defs>
</svg>
