<svg width="26" height="26" viewBox="0 0 26 26" fill="none" xmlns="http://www.w3.org/2000/svg">
<g filter="url(#filter0_d_1_535)">
<mask id="mask0_1_535" style="mask-type:alpha" maskUnits="userSpaceOnUse" x="0" y="0" width="24" height="24">
<circle cx="12" cy="12" r="12" fill="#D9D9D9"/>
</mask>
<g mask="url(#mask0_1_535)">
<path fill-rule="evenodd" clip-rule="evenodd" d="M-4 0V24H28V0H-4Z" fill="#E31D1C"/>
<mask id="mask1_1_535" style="mask-type:luminance" maskUnits="userSpaceOnUse" x="-4" y="0" width="32" height="24">
<path fill-rule="evenodd" clip-rule="evenodd" d="M-4 0V24H28V0H-4Z" fill="white"/>
</mask>
<g mask="url(#mask1_1_535)">
<mask id="path-4-outside-1_1_535" maskUnits="userSpaceOnUse" x="-6" y="-2" width="36" height="28" fill="black">
<rect fill="white" x="-6" y="-2" width="36" height="28"/>
<path fill-rule="evenodd" clip-rule="evenodd" d="M6 0H10V10H28V14H10V24H6V14H-4V10H6V0Z"/>
</mask>
<path fill-rule="evenodd" clip-rule="evenodd" d="M6 0H10V10H28V14H10V24H6V14H-4V10H6V0Z" fill="#002868"/>
<path fill-rule="evenodd" clip-rule="evenodd" d="M6 0H10V10H28V14H10V24H6V14H-4V10H6V0Z" stroke="#F7FCFF" stroke-width="4" mask="url(#path-4-outside-1_1_535)"/>
</g>
</g>
</g>
<defs>
<filter id="filter0_d_1_535" x="0" y="0" width="26" height="26" filterUnits="userSpaceOnUse" color-interpolation-filters="sRGB">
<feFlood flood-opacity="0" result="BackgroundImageFix"/>
<feColorMatrix in="SourceAlpha" type="matrix" values="0 0 0 0 0 0 0 0 0 0 0 0 0 0 0 0 0 0 127 0" result="hardAlpha"/>
<feOffset dx="1" dy="1"/>
<feGaussianBlur stdDeviation="0.5"/>
<feComposite in2="hardAlpha" operator="out"/>
<feColorMatrix type="matrix" values="0 0 0 0 0 0 0 0 0 0 0 0 0 0 0 0 0 0 0.4 0"/>
<feBlend mode="normal" in2="BackgroundImageFix" result="effect1_dropShadow_1_535"/>
<feBlend mode="normal" in="SourceGraphic" in2="effect1_dropShadow_1_535" result="shape"/>
</filter>
</defs>
</svg>
