<svg xmlns="http://www.w3.org/2000/svg" fill="none" viewBox="0 0 24 24"><path fill="currentColor" d="m9.44.903.602-.006 1.265-.008q.964-.007 1.93-.025.613-.004 1.228-.006l.58-.013c.953.004 1.407.046 2.231.571.823.857.762 1.562.767 2.694l.004.533q.007.876.01 1.752l.003.604q.008 1.583.01 3.164.006 1.635.021 3.269.01 1.256.01 2.513 0 .603.008 1.205.007.844.004 1.687l.01.502c-.01.836-.113 1.286-.565 1.999-.928.9-1.937.784-3.156.79l-.57.005-1.192.005q-.909.005-1.818.017l-1.16.004-.547.009c-1.084-.005-1.779-.131-2.635-.808-.571-.857-.551-1.468-.55-2.457l-.005-.534q-.005-.873-.006-1.747l-.004-1.215q-.004-1.275-.004-2.548 0-1.632-.015-3.263-.007-1.256-.006-2.51 0-.601-.006-1.203-.006-.841 0-1.684l-.009-.5C5.89 2.566 6.163 1.997 6.96 1.2 7.736.812 8.587.91 9.44.903m-1.925 1.52c-.478.694-.407 1.278-.408 2.114l-.004.507a164 164 0 0 0 .001 1.661q0 .578-.002 1.154-.001 1.209.004 2.419.005 1.55-.002 3.101-.004 1.191 0 2.383l-.002 1.144q-.003.798.005 1.598l.002.918c.032.728.032.728.406 1.196.684.443 1.446.364 2.235.358l.54.002q.566 0 1.131-.004.865-.004 1.73.005l1.099-.003.523.004c.903-.007.903-.007 1.712-.362.478-.695.407-1.279.408-2.114l.004-.508q.003-.83-.001-1.661 0-.578.002-1.154.001-1.209-.004-2.419-.005-1.55.003-3.101.002-1.192 0-2.383-.001-.571.001-1.144.003-.798-.005-1.597l-.002-.92c-.032-.727-.032-.727-.406-1.195-.684-.443-1.446-.364-2.235-.358l-.54-.002q-.566 0-1.131.004c-.577.004-1.153 0-1.73-.004l-1.099.002-.523-.004c-.903.007-.903.007-1.712.362"/><path fill="currentColor" d="M10.943 2.857q.537.002 1.072.008l.552.003 1.353.012c.135.465.135.465.24.96-.24.24-.24.24-1.104.263l-1.071-.008-.552-.003-1.353-.012c-.135-.465-.135-.465-.24-.96.24-.24.24-.24 1.103-.263"/></svg>