<svg width="36" height="36" viewBox="0 0 36 36" fill="none" xmlns="http://www.w3.org/2000/svg">
<path d="M2 11C0 11 0 13 0 13V34C0 34 0 36 2 36H34C36 36 36 34 36 34V13C36 13 36 11 34 11H2Z" fill="#5C913B"/>
<path d="M2 6C0 6 0 8 0 8V28C0 28 0 30 2 30H34C36 30 36 28 36 28V8C36 8 36 6 34 6H2Z" fill="#A7D28B"/>
<path d="M25 24.5C28.5899 24.5 31.5 21.5899 31.5 18C31.5 14.4101 28.5899 11.5 25 11.5C21.4101 11.5 18.5 14.4101 18.5 18C18.5 21.5899 21.4101 24.5 25 24.5Z" fill="#77B255"/>
<path d="M33 28.5H3C2.173 28.5 1.5 27.827 1.5 27V9C1.5 8.173 2.173 7.5 3 7.5H33C33.827 7.5 34.5 8.173 34.5 9V27C34.5 27.827 33.827 28.5 33 28.5ZM3 8.5C2.725 8.5 2.5 8.724 2.5 9V27C2.5 27.275 2.725 27.5 3 27.5H33C33.275 27.5 33.5 27.275 33.5 27V9C33.5 8.724 33.275 8.5 33 8.5H3Z" fill="#5C913B"/>
<path d="M14 6H22V30.062H14V6Z" fill="#FFE8B6"/>
<path d="M14 30H22V36H14V30Z" fill="#FFAC33"/>
<path d="M11.81 20.023C11.81 17.044 6.317 17.238 6.317 15.439C6.317 14.568 7.15 14.143 8.116 14.143C9.741 14.143 10.03 15.187 10.766 15.187C11.287 15.187 11.538 14.859 11.538 14.491C11.538 13.635 10.242 12.989 8.999 12.765V11.94C8.999 11.425 8.582 11.008 8.067 11.008C7.552 11.008 7.135 11.426 7.135 11.94V12.793C5.781 13.103 4.614 14.043 4.614 15.574C4.614 18.436 10.107 18.32 10.107 20.332C10.107 21.027 9.353 21.723 8.115 21.723C6.258 21.723 5.639 20.466 4.886 20.466C4.518 20.466 4.19 20.775 4.19 21.241C4.19 21.982 5.43 22.872 7.137 23.122L7.136 23.126V24.06C7.136 24.574 7.554 24.992 8.069 24.992C8.583 24.991 9 24.573 9 24.06V23.126C9 23.116 8.995 23.107 8.994 23.098C10.529 22.811 11.81 21.812 11.81 20.023V20.023Z" fill="#5C913B"/>
</svg>
